<svg id="Group_31" data-name="Group 31" xmlns="http://www.w3.org/2000/svg" xmlns:xlink="http://www.w3.org/1999/xlink" width="532.168" height="260.533" viewBox="0 0 532.168 260.533">
  <defs>
    <clipPath id="clip-path">
      <rect id="Rectangle_77" data-name="Rectangle 77" width="532.168" height="260.533" fill="none"/>
    </clipPath>
    <clipPath id="clip-path-5">
      <rect id="Rectangle_75" data-name="Rectangle 75" width="168.534" height="37.877" fill="none"/>
    </clipPath>
  </defs>
  <g id="Group_30" data-name="Group 30" clip-path="url(#clip-path)">
    <rect id="Rectangle_63" data-name="Rectangle 63" width="125.478" height="96.78" transform="translate(110.844 162.77)" fill="#ebebeb"/>
    <g id="Group_22" data-name="Group 22">
      <g id="Group_21" data-name="Group 21" clip-path="url(#clip-path)">
        <path id="Path_19" data-name="Path 19" d="M170.119,231.248c-.173,0-.313-21.572-.313-48.177s.14-48.181.313-48.181.313,21.568.313,48.181-.14,48.177-.313,48.177" transform="translate(34.766 27.617)" fill="#e0e0e0"/>
        <rect id="Rectangle_64" data-name="Rectangle 64" width="9.62" height="10.875" transform="translate(216.064 237.52)" fill="#fafafa"/>
        <rect id="Rectangle_65" data-name="Rectangle 65" width="14.253" height="20.65" transform="translate(149.124 163.019)" fill="#e0e0e0"/>
        <rect id="Rectangle_66" data-name="Rectangle 66" width="14.253" height="20.65" transform="translate(149.124 238.61)" fill="#e0e0e0"/>
        <rect id="Rectangle_67" data-name="Rectangle 67" width="158.213" height="122.028" transform="translate(368.521 138.505)" fill="#ebebeb"/>
        <path id="Path_20" data-name="Path 20" d="M404.369,236.189c-.173,0-.313-27.2-.313-60.745s.14-60.751.313-60.751.313,27.195.313,60.751-.14,60.745-.313,60.745" transform="translate(82.725 23.482)" fill="#e0e0e0"/>
        <rect id="Rectangle_68" data-name="Rectangle 68" width="12.129" height="13.711" transform="translate(501.19 232.758)" fill="#fafafa"/>
        <rect id="Rectangle_69" data-name="Rectangle 69" width="17.971" height="26.038" transform="translate(416.787 138.819)" fill="#e0e0e0"/>
        <rect id="Rectangle_70" data-name="Rectangle 70" width="17.971" height="26.038" transform="translate(416.787 234.132)" fill="#e0e0e0"/>
        <path id="Path_21" data-name="Path 21" d="M59.839,118.483c6.4-3.3,13.944-3.733,21.053-2.559,3.819.631,7.8,1.775,10.4,4.643s3.091,7.918.107,10.382c-1.776,1.467-4.254,1.69-6.557,1.664-5.565-.065-11.74-1.044-16.186,2.3-2.537,1.911-4.225,5.086-7.259,6.026-2.966.919-6.315-.832-7.889-3.511a12.257,12.257,0,0,1-.892-9.043,13.805,13.805,0,0,1,7.222-9.907" transform="translate(10.679 23.612)" fill="#ebebeb"/>
        <path id="Path_22" data-name="Path 22" d="M46.985,104.309c3.915,5.592,11.526,3.741,15.054.328s5.02-8.361,6.378-13.079c3.1-10.78,6.228-22.088,3.923-33.065a18.385,18.385,0,0,0-4.223-8.99c-2.307-2.435-5.853-3.883-9.095-3.026-3.837,1.014-6.222,4.772-7.946,8.348a78.826,78.826,0,0,0-7.789,33.824c-.018,5.449.624,11.162,3.7,15.66" transform="translate(8.863 9.465)" fill="#ebebeb"/>
        <path id="Path_23" data-name="Path 23" d="M45.095,109.276c4.252-5.045,5.059-12.405,3.166-18.725S42.1,78.852,37.17,74.461A59.717,59.717,0,0,0,17.31,62.743a21.181,21.181,0,0,0-8.932-1.517c-3.031.289-6.083,1.838-7.5,4.535C-1.208,69.747.8,74.583,2.962,78.527A151.353,151.353,0,0,0,16.007,98.391c3.911,5.042,8.389,10.014,14.347,12.292s12.149,2.009,15.307-2.123" transform="translate(0 12.523)" fill="#ebebeb"/>
        <path id="Path_24" data-name="Path 24" d="M46.149,173.2a12.11,12.11,0,0,0,.354-2.541c.18-1.849.406-4.172.675-6.936a100.386,100.386,0,0,1,1.559-10.172,78.866,78.866,0,0,1,3.7-12.006,44.254,44.254,0,0,1,6.132-10.863,22.872,22.872,0,0,1,7.75-6.443,21.677,21.677,0,0,1,6.528-2.034,12.193,12.193,0,0,0,2.53-.366,11.926,11.926,0,0,0-2.577-.04,19.816,19.816,0,0,0-6.8,1.771,22.855,22.855,0,0,0-8.177,6.5,43.223,43.223,0,0,0-6.355,11.081,73.487,73.487,0,0,0-3.671,12.2,85.847,85.847,0,0,0-1.352,10.3c-.222,2.944-.3,5.33-.343,6.978a11.924,11.924,0,0,0,.053,2.566" transform="translate(9.434 24.932)" fill="#e0e0e0"/>
        <path id="Path_25" data-name="Path 25" d="M46.626,179.515a5.016,5.016,0,0,0,.069-1.179c0-.887-.006-2-.01-3.372-.008-2.926-.006-7.161.151-12.39.259-10.458,1.159-21.714,2.9-37.583,1.647-14.921,3.858-32.286,6.19-43.577.5-2.567,1-4.878,1.479-6.9.452-2.029.837-3.777,1.211-5.191l.788-3.278a5.026,5.026,0,0,0,.206-1.163,4.895,4.895,0,0,0-.41,1.1c-.258.849-.581,1.918-.979,3.23-.434,1.4-.878,3.14-1.387,5.159C56.3,76.391,55.748,78.7,55.2,81.26A382.821,382.821,0,0,0,48.691,121.7c-1.743,15.9-2.528,30.38-2.6,40.865-.061,5.243.049,9.486.183,12.414.084,1.37.152,2.485.206,3.371a5,5,0,0,0,.143,1.171" transform="translate(9.434 13.284)" fill="#e0e0e0"/>
        <path id="Path_26" data-name="Path 26" d="M52.939,150.138a22.337,22.337,0,0,0-.024-3.523c-.13-2.264-.441-5.535-1.079-9.543a126,126,0,0,0-3.1-13.9,113.9,113.9,0,0,0-5.814-16.452C38.1,95.277,31.545,85.925,25.844,80.131A43.188,43.188,0,0,0,21.827,76.4c-.616-.522-1.16-1.041-1.716-1.453l-1.558-1.073a22.362,22.362,0,0,0-2.966-1.9c-.169.229,4.2,2.8,9.72,8.672a92.317,92.317,0,0,1,16.648,26.49,129.975,129.975,0,0,1,5.847,16.3c1.525,5.108,2.537,9.807,3.3,13.765.726,3.967,1.148,7.206,1.4,9.449a22.558,22.558,0,0,0,.431,3.489" transform="translate(3.19 14.735)" fill="#e0e0e0"/>
        <path id="Path_27" data-name="Path 27" d="M22.635,174.221l2.8,38.336H74.682l2.8-38.336Z" transform="translate(4.634 35.67)" fill="#ebebeb"/>
        <rect id="Rectangle_71" data-name="Rectangle 71" width="65.479" height="15.11" transform="translate(22.513 194.781)" fill="#ebebeb"/>
        <path id="Path_28" data-name="Path 28" d="M18.687,204.825v4.189h64.4v-4.189Z" transform="translate(3.826 41.935)" fill="#e0e0e0"/>
        <path id="Path_29" data-name="Path 29" d="M24.256,215.288l-3.015-7.372H80.215L76.7,215.288Z" transform="translate(4.349 42.568)" fill="#e0e0e0"/>
        <path id="Path_30" data-name="Path 30" d="M76.425,185.536a1.636,1.636,0,0,1-.229.352c-.2.259-.439.581-.736.976l-2.87,3.672-.127.163-.124-.17-7.049-9.749H65.7l-6.939,9.826-.218.308-.243-.29-8.23-9.791.475-.006-.453.569c-2.553,3.2-5.023,6.3-7.359,9.226l-.246.307-.226-.32-6.943-9.823.4.019-8.55,9.742-.152.173-.117-.2c-1.126-1.894-2.025-3.4-2.677-4.5l-.687-1.2a1.842,1.842,0,0,1-.21-.426,1.875,1.875,0,0,1,.287.38l.76,1.153,2.811,4.415-.267-.022c2.191-2.567,5.047-5.914,8.413-9.861l.212-.248.193.267,7,9.78-.471-.013c2.33-2.934,4.795-6.035,7.342-9.239l.453-.569.234-.294.241.288,8.207,9.81-.46.018,7.008-9.776.206-.286.2.286,6.9,9.855-.251-.007,2.984-3.578.8-.925c.184-.206.284-.308.3-.3" transform="translate(4.775 36.884)" fill="#f5f5f5"/>
        <path id="Path_31" data-name="Path 31" d="M78.1,174.063c0,.17-12.34.307-27.558.307s-27.562-.137-27.562-.307,12.338-.306,27.562-.306,27.558.137,27.558.306" transform="translate(4.704 35.574)" fill="#f5f5f5"/>
      </g>
    </g>
    <g id="Group_24" data-name="Group 24">
      <g id="Group_23" data-name="Group 23" clip-path="url(#clip-path)">
        <path id="Path_32" data-name="Path 32" d="M529.626,215.762c0,.173-115.791.313-258.593.313-142.85,0-258.617-.14-258.617-.313s115.767-.313,258.617-.313c142.8,0,258.593.14,258.593.313" transform="translate(2.542 44.11)" fill="#263238"/>
      </g>
    </g>
    <g id="Group_29" data-name="Group 29">
      <g id="Group_28" data-name="Group 28" clip-path="url(#clip-path)">
        <path id="Path_33" data-name="Path 33" d="M308.936.151s-.32.006-.942-.012a22.922,22.922,0,0,0-2.756.014A30.623,30.623,0,0,0,294.971,2.52a31.552,31.552,0,0,0-13.038,10.16,28.333,28.333,0,0,0-4.552,9.313,31.3,31.3,0,0,0,3.208,23.7,27.215,27.215,0,0,0,4.1,5.437,21.933,21.933,0,0,0,5.544,4.337,13.593,13.593,0,0,0,6.954,1.752,10.009,10.009,0,0,0,6.734-2.717,9.749,9.749,0,0,0,2.684-6.944,12.742,12.742,0,0,0-2.443-7.381c-3.129-4.4-8.186-7.354-13.567-8.948a33.363,33.363,0,0,0-17.112-.236,35.444,35.444,0,0,0-8.242,3.276,29.874,29.874,0,0,0-7.074,5.55c-.494.573-1.057,1.093-1.5,1.714l-1.361,1.836a32.007,32.007,0,0,0-4.837,12.9,33.647,33.647,0,0,0,2.434,18.073,27.817,27.817,0,0,0,11.632,13.2,19.147,19.147,0,0,0,8.238,2.5,14.618,14.618,0,0,0,8.128-1.952,12.829,12.829,0,0,0,5.5-5.992,10.911,10.911,0,0,0,.125-7.877A15.725,15.725,0,0,0,282,67.812a20.525,20.525,0,0,0-6.663-3.872,25.856,25.856,0,0,0-14.666-.254,28.621,28.621,0,0,0-12.029,6.707,27.446,27.446,0,0,0-6.9,10.69,30.96,30.96,0,0,0,.316,21.646,32.768,32.768,0,0,0,9.926,13.241,35.051,35.051,0,0,0,9.119,5.312c1.134.431,2.006.737,2.606.9.593.187.894.3.894.3s-.312-.069-.912-.234c-.607-.148-1.488-.436-2.632-.849a34.305,34.305,0,0,1-9.227-5.239,32.877,32.877,0,0,1-10.1-13.3,31.29,31.29,0,0,1-.407-21.925,27.886,27.886,0,0,1,6.981-10.891,29.091,29.091,0,0,1,12.227-6.859,26.366,26.366,0,0,1,14.982.235,21.061,21.061,0,0,1,6.856,3.968,16.3,16.3,0,0,1,4.7,6.636,11.494,11.494,0,0,1-.126,8.3,13.423,13.423,0,0,1-5.744,6.284,15.224,15.224,0,0,1-8.461,2.038,19.748,19.748,0,0,1-8.5-2.572,28.426,28.426,0,0,1-11.905-13.483,34.25,34.25,0,0,1-2.482-18.413,32.6,32.6,0,0,1,4.938-13.157l1.39-1.877c.451-.635,1.025-1.166,1.531-1.753a30.461,30.461,0,0,1,7.225-5.662,36.016,36.016,0,0,1,8.4-3.332,33.945,33.945,0,0,1,17.428.258c5.49,1.637,10.634,4.636,13.874,9.191a13.312,13.312,0,0,1,2.535,7.714,10.307,10.307,0,0,1-2.861,7.336,10.551,10.551,0,0,1-7.1,2.86,14.1,14.1,0,0,1-7.219-1.83,22.418,22.418,0,0,1-5.659-4.445,27.647,27.647,0,0,1-4.156-5.543A31.687,31.687,0,0,1,277,21.887a28.653,28.653,0,0,1,4.655-9.416A31.7,31.7,0,0,1,294.877,2.294,30.134,30.134,0,0,1,305.231.027,20.33,20.33,0,0,1,308,.075c.622.04.938.076.938.076" transform="translate(49.043 0)" fill="#bfbfbf"/>
        <rect id="Rectangle_74" data-name="Rectangle 74" width="168.916" height="130.284" transform="translate(232.559 127.941)" fill="#12a4d8"/>
        <path id="Path_34" data-name="Path 34" d="M166.3,236.482h32.216V106.2L166.3,119.49Z" transform="translate(34.047 21.743)" fill="#12a4d8"/>
        <path id="Path_35" data-name="Path 35" d="M193.036,106.2l31.2,29.1H390.289l-28.337-29.1Z" transform="translate(39.522 21.743)" fill="#12a4d8"/>
        <path id="Path_36" data-name="Path 36" d="M193.036,106.251l168.917-.308h.129l.092.094c9.049,9.291,18.441,18.932,28.047,28.8l.292.3.52.534h-.743l-166.054-.124h-.076l-.053-.051-31.071-29.239,31.328,28.962-.128-.051,166.054-.124-.225.533-.292-.3c-9.607-9.867-18.994-19.511-28.041-28.805l.222.094-168.917-.308" transform="translate(39.522 21.69)" fill="#12a4d8"/>
        <path id="Path_37" data-name="Path 37" d="M249.421,157.63a3.458,3.458,0,1,0,.26.01" transform="translate(50.359 32.273)" fill="#263238"/>
        <path id="Path_38" data-name="Path 38" d="M282.527,157.63a3.458,3.458,0,1,0,.26.01" transform="translate(57.138 32.273)" fill="#263238"/>
        <path id="Path_39" data-name="Path 39" d="M289.092,186.487A24.559,24.559,0,0,0,285.749,179a22.111,22.111,0,0,0-6.381-6.122,19.488,19.488,0,0,0-20.638-.566,22.114,22.114,0,0,0-6.707,5.763,24.547,24.547,0,0,0-3.749,7.295,2.034,2.034,0,0,1,.1-.57,12.891,12.891,0,0,1,.442-1.6,19.277,19.277,0,0,1,2.855-5.392,21.942,21.942,0,0,1,6.777-6,19.792,19.792,0,0,1,21.235.583,21.94,21.94,0,0,1,6.437,6.36,19.3,19.3,0,0,1,2.555,5.542,12.85,12.85,0,0,1,.354,1.622,2,2,0,0,1,.066.575" transform="translate(50.829 34.601)" fill="#263238"/>
        <g id="Group_27" data-name="Group 27" transform="translate(232.941 129.374)" opacity="0.5">
          <g id="Group_26" data-name="Group 26">
            <g id="Group_25" data-name="Group 25" clip-path="url(#clip-path-5)">
              <path id="Path_40" data-name="Path 40" d="M193.354,107.389l29.873,37.876H361.889V135.055H224.171Z" transform="translate(-193.354 -107.388)"/>
            </g>
          </g>
        </g>
        <path id="Path_41" data-name="Path 41" d="M333.3,231.3c-.173,0-.313-22.661-.313-50.609s.14-50.615.313-50.615.313,22.657.313,50.615-.14,50.609-.313,50.609" transform="translate(68.175 26.631)" fill="#263238"/>
        <path id="Path_42" data-name="Path 42" d="M192.84,236.236c-.213,0-.385-29.169-.385-65.144s.172-65.149.385-65.149.386,29.163.386,65.149-.172,65.144-.386,65.144" transform="translate(39.403 21.691)" fill="#263238"/>
      </g>
    </g>
  </g>
</svg>
